<svg version="1.1" id="Layer_1" xmlns="http://www.w3.org/2000/svg" xmlns:xlink="http://www.w3.org/1999/xlink" x="0px" y="0px"
	 width="100%" viewBox="0 0 544 320" enable-background="new 0 0 544 320" xml:space="preserve">
<path fill="#000000" opacity="1.000000" stroke="none" 
	d="
M189.388519,232.288422 
	C188.288330,226.359802 190.132706,221.700928 194.345688,218.116302 
	C197.138840,215.739807 200.663635,214.766251 204.157089,216.403946 
	C207.642288,218.037781 208.166473,221.440414 208.099716,224.917603 
	C208.084457,225.712936 207.951431,226.505997 208.219299,227.329590 
	C209.793823,220.813507 209.769409,214.165741 209.680649,207.519760 
	C209.652725,205.427582 208.291397,204.622223 206.361084,204.645050 
	C204.555756,204.666382 202.682892,205.022980 201.149445,203.224640 
	C201.996521,200.836472 204.094284,200.913223 205.984879,200.984283 
	C209.412430,201.113113 210.950027,199.608704 210.671204,196.204834 
	C210.644165,195.874619 210.657242,195.535675 210.697067,195.206268 
	C211.002380,192.681152 210.398453,189.013229 214.111557,189.196075 
	C217.373901,189.356720 216.402420,192.865845 216.230789,194.925140 
	C215.849655,199.497665 217.498398,201.354843 222.151627,200.964813 
	C225.960327,200.645569 229.811905,200.795486 233.644043,200.815506 
	C235.591873,200.825668 237.674316,200.573303 239.065552,202.412582 
	C239.116562,204.328659 236.677963,204.145264 236.413177,205.827148 
	C236.092575,207.863510 235.370712,210.158401 232.882187,209.833344 
	C230.111008,209.471344 231.885849,206.406677 230.869049,204.946289 
	C230.436081,204.805603 230.036728,204.526001 229.826797,204.629745 
	C225.554306,206.740753 218.441208,201.503281 216.601974,208.543411 
	C215.421646,213.061462 214.792419,218.335846 216.383789,223.229523 
	C216.979797,225.062347 215.726868,226.415146 215.520752,228.013199 
	C215.210236,230.420898 215.547165,232.851120 217.670090,234.279907 
	C219.533707,235.534180 221.497635,234.544525 223.301041,233.550156 
	C226.937286,231.545212 229.180862,228.840408 228.683594,224.337540 
	C228.486877,222.556244 228.758179,220.666946 229.135635,218.894821 
	C229.496002,217.202972 230.467239,215.716110 232.522354,215.845352 
	C234.652771,215.979324 235.329193,217.585968 235.210007,219.370392 
	C235.033432,222.014023 236.184372,224.558624 235.437515,227.275558 
	C235.002228,228.858994 235.277267,230.678787 237.696655,230.919510 
	C239.386902,229.554169 238.625946,227.500031 239.079041,225.816010 
	C241.017868,218.609863 247.731888,214.170380 254.624756,215.760513 
	C256.449036,216.181396 258.585541,216.833267 257.925568,219.218475 
	C257.291077,221.511597 255.347794,220.492050 253.738144,220.080704 
	C249.200790,218.921249 247.333527,220.308655 247.067154,224.853912 
	C247.019623,225.664963 246.822205,226.484222 246.579590,227.264099 
	C244.948288,232.507919 246.805969,234.702927 252.289886,233.424042 
	C257.761017,232.148117 262.928345,230.858337 264.983093,223.983765 
	C266.891663,217.598358 273.814117,214.682571 280.740509,215.692978 
	C281.548279,215.810822 282.402588,215.979156 283.185211,215.840744 
	C288.948761,214.821564 289.857086,215.687225 288.854980,221.401093 
	C288.768860,221.891968 288.517242,222.368546 288.506287,222.855438 
	C288.440735,225.767029 287.260895,229.340668 290.791809,230.821976 
	C293.966736,232.153931 295.839447,229.190918 297.888153,227.308487 
	C299.314667,225.997757 300.025391,223.858521 302.265900,223.434036 
	C302.718323,227.576553 299.238037,232.799164 294.756256,234.769104 
	C289.249329,237.189621 286.006989,236.356293 281.350403,231.034653 
	C280.142181,232.387207 279.053314,233.825821 277.746674,235.027679 
	C273.833618,238.627014 269.783691,239.196838 265.518188,236.121017 
	C263.436035,234.619598 262.139740,235.054764 260.188934,235.940994 
	C253.946487,238.776840 248.143051,239.021973 241.086853,236.591949 
	C236.471893,235.002625 229.914276,231.796173 223.951767,237.320206 
	C219.295624,241.633957 214.587051,240.088318 211.039841,234.648819 
	C209.049637,231.596893 206.838425,231.444839 204.539047,233.750702 
	C201.404999,236.893661 197.912079,238.034424 193.643066,236.876190 
	C193.168213,236.747345 192.507919,236.495590 192.193771,236.700226 
	C186.302750,240.537369 182.187210,237.932129 179.171249,232.925201 
	C176.015137,233.305435 174.859985,235.491821 173.377563,237.204147 
	C162.365616,249.923859 151.777100,263.091827 136.985306,271.826996 
	C129.033737,276.522736 120.820450,280.218994 111.251587,280.392395 
	C95.696800,280.674286 85.121407,270.165894 86.375206,252.446945 
	C87.245476,240.148193 93.189003,229.975113 100.754257,220.638199 
	C106.671204,213.335541 113.720184,207.246719 121.381866,201.843658 
	C122.983177,200.714417 124.572762,199.568527 126.333191,198.312241 
	C125.670685,197.698257 125.384346,197.241440 124.982246,197.087997 
	C111.868843,192.084106 111.182129,180.738892 115.905960,170.818863 
	C121.885857,158.261093 131.705933,149.105820 143.044159,141.468872 
	C145.970520,139.497818 149.359116,138.566971 153.000290,138.680435 
	C159.828049,138.893112 162.927338,142.637283 160.984741,149.173309 
	C159.073151,155.605042 155.288193,161.191467 151.763840,166.837540 
	C150.483887,168.888062 148.357025,169.665054 146.132462,168.224777 
	C143.730423,166.669571 145.094162,164.653763 145.954315,162.930511 
	C148.254333,158.322601 151.463791,154.179428 152.939072,149.145920 
	C153.452408,147.394409 154.503281,145.379868 152.756256,144.059586 
	C150.983170,142.719650 149.217270,144.338821 147.813889,145.341461 
	C138.496445,151.998260 130.542618,159.991531 124.723511,169.925613 
	C122.688316,173.399979 121.456673,177.224655 121.320511,181.306595 
	C121.024590,190.177750 128.518585,195.735977 137.091217,192.986038 
	C141.211777,191.664230 145.266418,189.958267 149.664322,190.015686 
	C151.718567,190.042496 154.602386,189.844666 155.103867,192.452286 
	C155.649963,195.292099 152.708359,195.613068 150.777496,196.332840 
	C149.072327,196.968475 147.282776,197.551590 145.486450,197.741547 
	C130.284348,199.349091 120.724106,209.925140 111.056488,219.896423 
	C102.347923,228.878510 96.251602,239.606018 94.514816,252.296783 
	C93.824020,257.344513 94.801949,262.288910 97.018852,266.860260 
	C100.941322,274.948578 107.759605,277.829590 117.127495,274.980469 
	C129.533020,271.207489 139.438400,263.207642 149.092072,254.979065 
	C158.263885,247.161209 165.600540,237.607330 173.456161,228.545898 
	C175.632431,226.035599 174.786667,223.750763 174.042297,221.130844 
	C173.500168,219.222748 171.740250,216.653152 174.365768,215.294495 
	C177.386246,213.731445 178.170685,216.812210 179.417023,218.660461 
	C179.674622,219.042450 180.157883,219.272278 180.520279,219.558899 
	C184.115479,219.365433 184.932083,212.989243 189.853821,215.527969 
	C189.768097,219.657501 186.515106,221.901627 184.523148,224.809326 
	C183.208099,226.728897 183.031021,228.566055 184.469803,230.304504 
	C185.672287,231.757492 186.359924,234.727203 189.388519,232.288422 
M271.056915,232.283691 
	C276.803925,232.721100 277.332184,227.452011 279.701385,224.260391 
	C280.533600,223.139328 281.376160,221.578186 279.798981,220.278671 
	C278.241821,218.995651 276.399994,219.416107 275.278442,220.611679 
	C272.381805,223.699493 270.738312,227.456482 271.056915,232.283691 
z"/>
<path fill="#000000" opacity="1.000000" stroke="none" 
	d="
M465.771515,229.881744 
	C460.453644,233.758286 455.094543,236.677002 448.814514,237.609985 
	C447.309143,237.833649 445.789001,238.174927 444.384460,237.571396 
	C439.810699,235.606079 435.530884,234.515808 430.481293,236.994690 
	C427.405579,238.504562 425.036621,235.538773 423.727539,232.603531 
	C416.229401,236.639114 414.987122,236.491928 409.354553,230.928619 
	C405.536896,232.038071 403.346161,234.267288 402.856384,238.564407 
	C401.532196,250.183167 397.819550,260.964020 390.245392,270.101746 
	C385.466827,275.866791 379.794861,280.377960 372.101959,281.589355 
	C365.647156,282.605713 360.984528,278.779633 360.707947,272.255890 
	C360.492218,267.167786 362.603394,262.877014 365.444122,258.864166 
	C372.441772,248.979202 382.211823,242.326538 392.216766,235.954117 
	C394.613861,234.427322 397.136658,233.020798 397.179596,229.372421 
	C390.297607,233.320923 383.984100,240.875824 375.449646,232.719025 
	C364.817444,238.355850 361.351654,238.392517 358.751007,232.889572 
	C356.145142,227.375580 359.661255,219.025620 365.594269,216.638351 
	C371.894409,214.103378 374.594727,215.837601 377.669830,225.045914 
	C379.301575,223.228912 380.552856,221.535507 382.095673,220.171967 
	C387.471649,215.420624 396.742554,214.626617 402.677673,218.249924 
	C403.999969,219.057190 404.255188,220.312729 404.273834,221.683563 
	C404.298157,223.472244 404.279785,225.261475 404.279785,226.903732 
	C407.319275,227.885025 408.319885,226.644394 408.593719,224.504669 
	C408.783417,223.022522 408.624084,221.477631 408.950775,220.035553 
	C409.384796,218.119949 409.824371,215.754456 412.464142,215.936295 
	C415.201691,216.124832 415.360718,218.361084 414.988739,220.440262 
	C414.531952,222.993881 416.995911,225.251221 415.505920,227.953232 
	C415.078369,228.728577 415.981598,229.888168 417.031616,230.210556 
	C418.142853,230.551727 418.938507,229.816849 419.567078,229.017288 
	C421.377502,226.714462 421.826904,223.869202 422.605255,221.159775 
	C423.109894,219.403152 423.464417,217.594254 424.093658,215.885178 
	C424.707306,214.218491 425.862152,212.962234 427.871979,213.410248 
	C429.619293,213.799744 430.193512,215.219955 430.185394,216.830750 
	C430.168610,220.160583 429.944672,223.492706 430.027191,226.818405 
	C430.076782,228.817444 429.212616,231.923141 432.224548,232.063538 
	C435.339294,232.208740 434.620178,229.192902 434.725006,227.107956 
	C435.138519,218.885513 442.191589,212.826447 450.293488,213.842773 
	C452.760437,214.152237 455.665283,214.573242 456.035095,217.661316 
	C456.414215,220.827087 453.694275,221.726074 451.256775,222.465683 
	C449.990936,222.849777 448.628479,223.328888 447.359253,223.214523 
	C442.653931,222.790543 442.719238,226.595474 442.624817,229.186386 
	C442.511810,232.286621 445.372498,232.957550 448.053284,232.960938 
	C453.865723,232.968277 458.416870,229.666153 463.220581,227.061676 
	C465.334686,225.915451 467.280304,224.397949 470.203888,223.775787 
	C469.900513,227.103333 467.491119,228.031906 465.771515,229.881744 
M377.172638,253.672760 
	C372.941162,257.978851 368.862671,262.465271 367.479340,268.531799 
	C366.873871,271.187103 366.237701,274.525055 369.171082,276.293488 
	C371.752594,277.849823 374.418671,276.456421 376.557159,274.761261 
	C387.685516,265.939789 392.832092,253.863007 395.923065,239.093552 
	C388.675598,243.735306 382.791748,247.940155 377.172638,253.672760 
M393.786224,220.427933 
	C387.214935,220.813171 383.885498,224.537231 385.102325,230.544693 
	C389.579681,229.923416 392.052277,226.546005 394.773224,223.593384 
	C395.660156,222.630905 395.681519,221.492874 393.786224,220.427933 
M366.164673,227.817505 
	C365.736145,227.361252 365.307648,226.904999 364.470642,226.013824 
	C363.915497,228.877548 362.735840,231.255264 365.132568,233.225723 
	C366.025238,233.959595 367.058563,233.173492 367.720642,232.418869 
	C369.414246,230.488281 367.377472,229.532120 366.164673,227.817505 
z"/>
<path fill="#000000" opacity="1.000000" stroke="none" 
	d="
M367.260010,185.193619 
	C356.123810,211.290039 347.032257,237.701279 339.331787,264.602783 
	C338.645386,267.000519 337.890564,269.380585 337.097534,271.745392 
	C336.230316,274.331329 335.235931,277.012543 331.856964,276.847992 
	C328.505646,276.684845 327.548279,273.887573 327.019592,271.284607 
	C325.465607,263.633362 323.981659,255.959641 322.781647,248.246277 
	C317.904572,216.898483 313.147003,185.532104 308.334259,154.174286 
	C307.987091,151.912308 306.839050,149.106781 310.151306,148.425446 
	C313.121063,147.814545 313.902252,150.347244 314.472900,152.771805 
	C318.094299,168.158524 319.763367,183.870941 322.251648,199.443985 
	C325.473755,219.609634 328.404053,239.821869 331.485870,260.010101 
	C331.602753,260.775543 331.990814,261.499634 332.526245,263.020599 
	C336.401794,250.871216 339.853699,239.436996 343.692749,228.134277 
	C353.723022,198.603760 365.417084,169.798157 381.840454,143.134338 
	C383.387573,140.622604 384.767517,136.017395 388.524658,138.324814 
	C391.819366,140.348251 388.032257,143.330246 386.828827,145.453369 
	C379.594330,158.216583 373.121613,171.339401 367.260010,185.193619 
z"/>
<path fill="#000000" opacity="1.000000" stroke="none" 
	d="
M114.329788,76.491005 
	C110.342972,78.183327 111.049362,81.446808 111.819969,84.367554 
	C113.107315,89.246834 116.458313,92.747726 120.446648,95.669586 
	C127.807167,101.061905 135.901520,104.805054 144.881516,106.570084 
	C145.845688,106.759605 146.807388,106.989555 147.738815,107.296227 
	C147.945160,107.364182 148.018188,107.837051 148.156616,108.132042 
	C147.688766,109.479729 146.585968,109.143654 145.671555,108.990547 
	C134.043076,107.043610 123.577744,102.529236 115.215691,94.082222 
	C110.516029,89.334824 107.023354,83.791389 110.048782,76.609505 
	C110.938629,74.497131 109.864014,73.145561 108.753082,71.650002 
	C107.599876,70.097519 106.801140,68.322777 108.331924,66.662628 
	C109.879204,64.984581 111.946800,65.508011 113.295708,66.767151 
	C116.336349,69.605453 119.436974,68.969810 123.001328,68.063934 
	C128.096603,66.768967 133.248352,68.251053 138.375824,68.649551 
	C141.361069,68.881561 144.376633,69.024307 147.363205,68.882919 
	C156.555405,68.447739 159.784561,62.749847 155.224869,54.748005 
	C153.427795,51.594322 150.830292,48.907307 148.743317,45.906219 
	C142.987564,37.629360 143.622482,33.021801 151.259293,26.703550 
	C158.505142,20.708754 158.911423,12.251661 152.288559,5.403891 
	C151.739456,4.836148 151.228027,4.231961 150.318878,3.222549 
	C153.437759,2.303769 154.684143,4.257497 155.884720,5.741230 
	C161.467606,12.640783 160.357056,21.938950 153.336319,28.052273 
	C145.951263,34.482826 145.612854,37.259212 151.338654,45.224915 
	C153.281494,47.927795 155.563812,50.414131 157.277039,53.249546 
	C162.929672,62.604691 158.466934,70.717972 147.621796,71.399338 
	C141.074402,71.810699 134.705582,69.966324 128.205109,70.257347 
	C125.838005,70.363312 123.195564,69.528107 120.571442,72.305664 
	C161.441711,106.034912 202.183701,139.658279 242.925705,173.281662 
	C242.486526,173.837204 242.047363,174.392761 241.608185,174.948303 
	C199.269821,142.173340 156.931473,109.398384 114.329788,76.491005 
z"/>
</svg>